<svg width="303" height="224" viewBox="0 0 303 224" fill="none" xmlns="http://www.w3.org/2000/svg">
<g clip-path="url(#clip0_314_61)">
<path fill-rule="evenodd" clip-rule="evenodd" d="M151.499 2.56932e-10C163.329 7.15992e-06 174.892 3.49723 184.728 10.0494C194.564 16.6016 202.23 25.9145 206.757 36.8104C211.284 47.7063 212.468 59.6958 210.16 71.2628C207.852 82.8298 202.156 93.4548 193.791 101.794C185.427 110.134 174.77 115.813 163.168 118.114C151.566 120.414 139.54 119.233 128.611 114.72C117.682 110.207 108.341 102.564 101.769 92.7581C95.197 82.952 91.6891 71.4233 91.6891 59.6296C91.6891 51.799 93.2362 44.0449 96.2419 36.8103C99.2476 29.5757 103.653 23.0022 109.207 17.4651C114.761 11.9279 121.354 7.53565 128.611 4.53899C135.867 1.54233 143.645 -2.29746e-05 151.499 2.56932e-10ZM164.914 74.3425C165.718 74.3461 166.488 74.6671 167.055 75.2352C167.623 75.8033 167.941 76.5724 167.941 77.374C167.941 78.1757 167.623 78.9447 167.055 79.5128C166.488 80.081 165.718 80.4019 164.914 80.4055H138.085C137.281 80.4019 136.511 80.081 135.944 79.5128C135.377 78.9447 135.058 78.1757 135.058 77.374C135.058 76.5724 135.377 75.8033 135.944 75.2352C136.511 74.6671 137.281 74.3461 138.085 74.3425H164.914ZM167.064 96.5305C166.494 95.962 165.72 95.6426 164.914 95.6426H138.085C137.279 95.6426 136.505 95.962 135.935 96.5305C135.365 97.099 135.045 97.87 135.045 98.674C135.045 99.478 135.365 100.249 135.935 100.818C136.505 101.386 137.279 101.705 138.085 101.705H164.914C165.72 101.705 166.494 101.386 167.064 100.818C167.634 100.249 167.954 99.478 167.954 98.674C167.954 97.87 167.634 97.099 167.064 96.5305ZM164.914 84.9927C165.314 84.9921 165.71 85.0701 166.079 85.2222C166.448 85.3743 166.784 85.5975 167.067 85.8791C167.35 86.1606 167.574 86.495 167.727 86.863C167.88 87.2311 167.959 87.6257 167.959 88.0241C167.959 88.4226 167.88 88.8171 167.727 89.1852C167.574 89.5533 167.35 89.8876 167.067 90.1692C166.784 90.4507 166.448 90.6739 166.079 90.826C165.71 90.9781 165.314 91.0561 164.914 91.0556H138.086C137.686 91.0561 137.29 90.9781 136.921 90.826C136.551 90.6739 136.216 90.4507 135.933 90.1692C135.65 89.8876 135.426 89.5533 135.273 89.1852C135.12 88.8171 135.041 88.4226 135.041 88.0241C135.041 87.6257 135.12 87.2311 135.273 86.863C135.426 86.495 135.65 86.1606 135.933 85.8791C136.216 85.5975 136.551 85.3743 136.921 85.2222C137.29 85.0701 137.686 84.9921 138.086 84.9927H164.914ZM192.457 80.3855C192.752 80.1185 192.991 79.7963 193.161 79.4371C196.38 72.6718 197.892 65.2252 197.566 57.7446C197.241 50.264 195.087 42.9759 191.293 36.514C187.499 30.0522 182.179 24.6122 175.795 20.667C169.412 16.7219 162.159 14.3911 154.666 13.8772C147.174 13.3633 139.669 14.682 132.803 17.7185C125.938 20.755 119.921 25.4175 115.275 31.3005C110.629 37.1835 107.495 44.1089 106.145 51.4746C104.795 58.8403 105.27 66.4233 107.529 73.5642C107.8 75.0064 108.375 76.3749 109.215 77.5791C110.056 78.7833 111.144 79.7957 112.406 80.5495C113.669 81.3033 115.077 81.7811 116.539 81.9514C118.001 82.1217 119.482 81.9807 120.885 81.5375C122.288 81.0943 123.58 80.3592 124.677 79.3807C125.773 78.4023 126.649 77.2028 127.246 75.8617C127.843 74.5205 128.147 73.0684 128.139 71.6012C128.13 70.134 127.81 68.6854 127.198 67.351C125.401 61.6435 125.689 55.486 128.012 49.9703C130.335 44.4546 134.541 39.9371 139.886 37.2187C145.231 34.5004 151.369 33.7568 157.211 35.1198C163.053 36.4828 168.223 39.8644 171.803 44.665L171.809 44.6724L171.803 44.6768C172.157 45.1503 172.415 45.6889 172.56 46.2617C172.706 46.8346 172.737 47.4304 172.651 48.0151C172.565 48.5998 172.365 49.1619 172.061 49.6692C171.757 50.1764 171.355 50.6189 170.879 50.9713C170.404 51.3237 169.863 51.579 169.288 51.7226C168.713 51.8663 168.115 51.8954 167.529 51.8084C166.943 51.7214 166.379 51.5199 165.871 51.2155C165.363 50.9111 164.92 50.5098 164.568 50.0345C162.517 47.2764 159.645 45.2339 156.361 44.1976C153.078 43.1614 149.55 43.1843 146.281 44.2631C143.011 45.3418 140.166 47.4215 138.151 50.2059C136.136 52.9904 135.053 56.3377 135.057 59.7713C135.057 60.5722 135.376 61.3403 135.944 61.9066C136.512 62.4729 137.282 62.791 138.086 62.791C138.889 62.791 139.659 62.4729 140.227 61.9066C140.795 61.3403 141.114 60.5722 141.114 59.7713C141.114 57.6102 141.797 55.5039 143.066 53.7518C144.335 51.9997 146.126 50.6909 148.183 50.0113C150.241 49.3318 152.461 49.3162 154.529 49.9666C156.596 50.617 158.405 51.9004 159.699 53.6344C160.526 54.7479 161.566 55.6878 162.758 56.4003C163.951 57.1129 165.272 57.584 166.648 57.7869C168.023 57.9897 169.425 57.9202 170.773 57.5825C172.121 57.2447 173.389 56.6452 174.505 55.8183C175.62 54.9914 176.562 53.9534 177.274 52.7635C177.987 51.5737 178.458 50.2554 178.659 48.884C178.861 47.5127 178.789 46.1152 178.448 44.7716C178.107 43.4279 177.504 42.1645 176.673 41.0535L176.667 41.0576C172.222 35.0964 165.799 30.9019 158.542 29.221C151.284 27.54 143.664 28.4819 137.039 31.8788C130.413 35.2757 125.212 40.9071 122.362 47.7699C119.511 54.6328 119.197 62.2815 121.474 69.3539L121.478 69.3529C121.522 69.4911 121.577 69.626 121.641 69.7565C121.912 70.3126 122.06 70.9202 122.074 71.5382C122.089 72.1562 121.971 72.7702 121.727 73.3387C121.483 73.9071 121.12 74.4166 120.661 74.8329C120.203 75.2491 119.66 75.5623 119.07 75.7512C118.479 75.9401 117.855 76.0003 117.239 75.9278C116.623 75.8553 116.03 75.6517 115.5 75.3309C114.97 75.0101 114.516 74.5795 114.167 74.0682C113.818 73.557 113.584 72.977 113.48 72.3676L113.477 72.368C113.452 72.2234 113.418 72.0808 113.373 71.9412C111.377 65.7415 110.933 59.1491 112.078 52.7389C113.224 46.3287 115.925 40.2952 119.946 35.1643C123.967 30.0335 129.186 25.9612 135.148 23.3023C141.109 20.6434 147.633 19.4787 154.149 19.9097C160.666 20.3407 166.978 22.3544 172.535 25.7751C178.092 29.1959 182.725 33.9198 186.031 39.5353C189.337 45.1507 191.215 51.4871 191.501 57.992C191.788 64.497 190.474 70.973 187.674 76.8556C187.504 77.2148 187.407 77.6039 187.388 78.0006C187.368 78.3973 187.428 78.7939 187.562 79.1678C187.697 79.5416 187.904 79.8854 188.172 80.1794C188.439 80.4735 188.763 80.7121 189.123 80.8816C189.483 81.051 189.874 81.1481 190.271 81.1673C190.669 81.1864 191.067 81.1272 191.442 80.9931C191.817 80.859 192.162 80.6525 192.457 80.3855Z" fill="#1D1D1D"/>
<path d="M272.401 177.838H296.222V163.232H284.311C284.098 163.232 283.662 163.267 282.995 163.329C282.209 163.414 281.433 163.565 280.673 163.781C279.712 164.057 278.782 164.431 277.898 164.899C276.89 165.433 275.982 166.134 275.212 166.974C274.346 167.951 273.662 169.074 273.192 170.291C272.628 171.832 272.36 173.466 272.401 175.106V177.838ZM303 193.738H296.222V184.595H272.401V193.738H265.623V175.106C265.596 172.538 266.073 169.989 267.028 167.604C267.916 165.392 269.248 163.386 270.942 161.706C272.635 160.041 274.647 158.732 276.857 157.857C279.23 156.924 281.761 156.458 284.311 156.483H299.584C300.038 156.482 300.488 156.57 300.909 156.74C301.318 156.91 301.689 157.157 302.003 157.467C302.318 157.778 302.566 158.149 302.733 158.558C302.912 158.979 303.002 159.431 303 159.888L303 193.738ZM262.652 163.232H247.726V193.738H240.948V163.232H225.987V156.483H262.652V163.232ZM145.095 177.838H168.916V163.232H157.006C156.792 163.232 156.356 163.267 155.689 163.329C154.904 163.414 154.127 163.565 153.368 163.781C152.406 164.057 151.476 164.431 150.592 164.899C149.585 165.433 148.676 166.134 147.906 166.974C147.04 167.951 146.357 169.074 145.887 170.291C145.323 171.832 145.054 173.466 145.095 175.106V177.838ZM175.694 193.738H168.916V184.595H145.095V193.738H138.317V175.106C138.29 172.538 138.768 169.989 139.723 167.604C140.611 165.392 141.942 163.386 143.637 161.706C145.33 160.041 147.341 158.732 149.552 157.857C151.924 156.924 154.455 156.458 157.006 156.483H172.278C172.733 156.482 173.183 156.57 173.604 156.74C174.012 156.91 174.384 157.157 174.698 157.467C175.013 157.778 175.261 158.149 175.427 158.558C175.606 158.979 175.697 159.431 175.694 159.888V193.738ZM131.157 193.738H124.334V171.55L112.317 192.621C112.036 193.142 111.606 193.568 111.081 193.845C110.554 194.119 109.968 194.262 109.373 194.261C108.795 194.264 108.226 194.121 107.718 193.845C107.203 193.564 106.782 193.139 106.509 192.621L94.4381 171.55V193.738H87.6601V159.365C87.6559 158.617 87.8994 157.888 88.353 157.291C88.8065 156.695 89.4447 156.264 90.1686 156.066C90.8813 155.898 91.6281 155.948 92.3123 156.208C92.6499 156.337 92.9628 156.523 93.2372 156.758C93.5224 156.992 93.7608 157.278 93.94 157.6L109.373 184.329L124.797 157.6C125.175 156.961 125.758 156.468 126.451 156.199C127.152 155.915 127.927 155.869 128.657 156.066C129.376 156.264 130.008 156.694 130.454 157.29C130.92 157.881 131.168 158.613 131.157 159.365V193.738ZM190.389 171.709H214.183V156.483H220.961V193.738H214.183V178.511H190.389V193.738H183.611V156.483H190.389V171.709ZM49.198 177.838H73.0189V163.232H61.1084C60.8951 163.232 60.4593 163.267 59.7921 163.329C59.0067 163.414 58.23 163.565 57.4705 163.781C56.5089 164.057 55.5788 164.431 54.6952 164.899C53.6875 165.433 52.7789 166.134 52.0089 166.974C51.1434 167.951 50.4596 169.074 49.9897 170.291C49.4256 171.832 49.157 173.466 49.198 175.106L49.198 177.838ZM79.7971 193.738H73.0189V184.595H49.198V193.738H42.4201V175.106C42.3932 172.538 42.8706 169.989 43.8255 167.604C44.7133 165.392 46.0452 163.386 47.7392 161.706C49.4324 160.041 51.444 158.732 53.6544 157.857C56.0269 156.924 58.558 156.458 61.1083 156.483H76.3813C76.8355 156.482 77.2855 156.57 77.7065 156.74C78.115 156.91 78.4866 157.157 78.8007 157.467C79.1152 157.778 79.3633 158.149 79.5301 158.558C79.7088 158.979 79.7996 159.431 79.797 159.888L79.7971 193.738ZM37.341 172.073C37.3601 173.469 37.1651 174.86 36.7628 176.197C36.4158 177.34 35.8937 178.423 35.2152 179.407C34.5899 180.308 33.8311 181.11 32.9647 181.784C31.356 183.036 29.477 183.899 27.4764 184.302C26.5993 184.49 25.7051 184.588 24.8079 184.595H9.48166V177.838H24.8079C25.6161 177.78 26.4108 177.6 27.165 177.305C27.8372 177.038 28.4528 176.647 28.9796 176.153C29.4862 175.654 29.8831 175.056 30.145 174.397C30.4364 173.657 30.5785 172.868 30.5629 172.073V169.005C30.4874 168.204 30.3049 167.416 30.0204 166.664C29.7608 165.991 29.3743 165.374 28.8817 164.846C28.3937 164.335 27.8026 163.933 27.1473 163.666C26.4045 163.367 25.609 163.219 24.8079 163.232H9.53529C9.16115 163.206 8.78561 163.255 8.43105 163.377C8.07649 163.499 7.75019 163.691 7.4716 163.941C7.22519 164.214 7.03607 164.534 6.91539 164.881C6.7947 165.229 6.74487 165.596 6.76884 165.963V193.738H-0.000296359V165.963C-0.048113 164.436 0.278564 162.92 0.951398 161.547C1.52111 160.411 2.32786 159.41 3.3175 158.611C4.2355 157.883 5.28247 157.332 6.40408 156.988C7.39958 156.671 8.43651 156.5 9.48166 156.483H24.8079C26.2029 156.463 27.5924 156.661 28.9263 157.068C30.0703 157.422 31.1533 157.948 32.1374 158.629C33.0426 159.248 33.8441 160.005 34.5124 160.873C35.1475 161.698 35.6903 162.59 36.1312 163.533C36.5456 164.432 36.856 165.375 37.0564 166.344C37.2378 167.22 37.3332 168.111 37.341 169.005V172.073Z" fill="#1D1D1D"/>
<path d="M-0.00029636 223.774H10.2221C10.6576 223.767 11.0897 223.697 11.5053 223.567C11.9967 223.422 12.4531 223.178 12.846 222.85C13.2389 222.522 13.56 222.117 13.7894 221.66C14.072 221.085 14.2087 220.45 14.1874 219.81V209.618C14.1879 209.428 14.1513 209.239 14.0796 209.062C14.0098 208.892 13.9075 208.737 13.7783 208.606C13.6503 208.475 13.4972 208.372 13.3282 208.302C13.1472 208.229 12.9539 208.193 12.759 208.194H-0.00029636V211.016H11.3529V219.81C11.3713 219.965 11.354 220.122 11.3024 220.269C11.2507 220.416 11.1661 220.55 11.0549 220.66C10.9438 220.769 10.809 220.852 10.6608 220.902C10.5126 220.952 10.3549 220.968 10.1997 220.948H-0.00029636V223.774ZM1.27198 217.407H10.2221V214.562H1.27198V217.407Z" fill="#1D1D1D"/>
<path d="M48.0113 214.562H57.9625V208.194H60.7968V223.774H57.9625V217.406H48.0113V223.774H45.177V208.194H48.0113V214.562Z" fill="#1D1D1D"/>
<path d="M105.974 223.774H95.7518C95.3162 223.767 94.8839 223.697 94.4683 223.567C93.9769 223.422 93.5206 223.178 93.1277 222.85C92.7348 222.522 92.4137 222.117 92.1843 221.66C91.9017 221.085 91.7651 220.45 91.7863 219.81V209.618C91.7858 209.428 91.8224 209.239 91.8942 209.062C91.9639 208.892 92.0662 208.737 92.1954 208.606C92.3234 208.475 92.4765 208.372 92.6455 208.302C92.8265 208.229 93.0198 208.193 93.2147 208.194H105.974V211.016H94.6209V219.81C94.6025 219.965 94.6198 220.122 94.6714 220.269C94.723 220.416 94.8076 220.55 94.9187 220.66C95.0299 220.769 95.1647 220.852 95.3129 220.902C95.4611 220.952 95.6187 220.968 95.7739 220.948H105.974V223.774ZM104.702 217.407H95.7518V214.562H104.702V217.407Z" fill="#1D1D1D"/>
<path d="M152.58 214.714C152.588 215.298 152.506 215.879 152.338 216.439C152.193 216.917 151.974 217.37 151.69 217.781C151.429 218.158 151.112 218.493 150.749 218.775C150.077 219.299 149.291 219.659 148.454 219.828C148.087 219.907 147.713 219.948 147.338 219.951H140.929V217.125H147.338C147.676 217.1 148.009 217.025 148.324 216.902C148.605 216.79 148.863 216.627 149.083 216.42C149.295 216.212 149.461 215.962 149.57 215.686C149.692 215.376 149.752 215.046 149.745 214.714V213.431C149.713 213.096 149.637 212.767 149.518 212.452C149.41 212.17 149.248 211.912 149.042 211.691C148.838 211.478 148.591 211.31 148.317 211.198C148.006 211.073 147.673 211.011 147.338 211.016H140.951C140.796 210.997 140.638 211.013 140.489 211.064C140.341 211.114 140.206 211.197 140.094 211.307C139.983 211.417 139.898 211.551 139.846 211.699C139.794 211.846 139.776 212.003 139.794 212.159V223.774H136.964V212.159C136.944 211.52 137.08 210.886 137.362 210.312C137.6 209.837 137.937 209.418 138.351 209.084C138.735 208.78 139.173 208.549 139.642 208.406C140.058 208.273 140.492 208.201 140.929 208.194H147.338C147.922 208.186 148.503 208.269 149.061 208.439C149.539 208.587 149.992 208.807 150.403 209.092C150.782 209.35 151.117 209.667 151.397 210.03C151.662 210.375 151.889 210.748 152.074 211.143C152.247 211.519 152.377 211.913 152.461 212.318C152.536 212.684 152.576 213.057 152.58 213.431V214.714Z" fill="#1D1D1D"/>
<path fill-rule="evenodd" clip-rule="evenodd" d="M189.107 220.932H199.069V214.719C199.075 214.206 198.985 213.695 198.805 213.214C198.636 212.777 198.379 212.38 198.05 212.046C197.719 211.716 197.322 211.459 196.885 211.293C196.4 211.109 195.883 211.018 195.364 211.026H192.816C192.298 211.019 191.783 211.11 191.298 211.293C190.858 211.458 190.459 211.715 190.126 212.046C189.799 212.381 189.544 212.778 189.375 213.214C189.191 213.694 189.101 214.205 189.107 214.719V220.932ZM195.364 208.2C196.263 208.191 197.156 208.359 197.99 208.693C198.764 209.004 199.466 209.468 200.055 210.058C200.643 210.647 201.105 211.35 201.412 212.123C201.745 212.948 201.912 213.83 201.903 214.719V220.932H204.758V223.758H200.67C200.605 223.765 200.54 223.769 200.475 223.769H187.705C187.641 223.769 187.578 223.765 187.515 223.758H183.569V220.932H186.276V214.719C186.268 213.83 186.434 212.948 186.767 212.123C187.073 211.349 187.535 210.645 188.124 210.055C188.713 209.465 189.417 209.001 190.193 208.693C191.027 208.36 191.918 208.192 192.816 208.2L195.364 208.2Z" fill="#1D1D1D"/>
<path d="M287.38 222.569C287.38 222.763 287.419 222.954 287.495 223.133C287.568 223.301 287.672 223.454 287.8 223.585C287.93 223.714 288.084 223.814 288.254 223.882C288.429 223.956 288.618 223.994 288.808 223.993C288.989 223.992 289.168 223.958 289.337 223.893C289.518 223.827 289.681 223.719 289.813 223.578L300.165 212.8V223.774H303V209.399C303.002 209.118 302.917 208.843 302.754 208.613C302.598 208.382 302.38 208.2 302.126 208.087C301.865 207.977 301.577 207.948 301.3 208.005C301.02 208.055 300.763 208.193 300.567 208.398L290.214 219.168V208.194H287.38V222.569Z" fill="#1D1D1D"/>
<path fill-rule="evenodd" clip-rule="evenodd" d="M244.567 223.774V217.386H242.836V217.4H242.81C242.749 217.4 242.688 217.399 242.628 217.397C242.106 217.44 241.599 217.598 241.145 217.858C240.691 218.118 240.299 218.475 239.999 218.903C238.999 220.381 238.501 222.141 238.58 223.922L238.58 224H235.747L235.747 223.911C235.668 221.517 236.368 219.161 237.743 217.197C238.084 216.747 238.476 216.338 238.911 215.978C238.476 215.618 238.084 215.208 237.743 214.759C236.368 212.794 235.668 210.439 235.747 208.044L235.747 207.956H238.58L238.58 208.033C238.501 209.815 238.999 211.574 239.999 213.053C240.299 213.481 240.691 213.837 241.145 214.098C241.599 214.358 242.106 214.515 242.628 214.559C242.689 214.557 242.749 214.556 242.81 214.556H242.836V214.561H244.567V208.173H247.401V214.561H249.3V214.556H249.326C249.387 214.556 249.448 214.557 249.509 214.559C250.031 214.515 250.537 214.358 250.991 214.098C251.446 213.838 251.837 213.481 252.138 213.053C253.138 211.574 253.635 209.815 253.556 208.033L253.556 207.956H256.389L256.389 208.044C256.469 210.439 255.769 212.794 254.393 214.759C254.052 215.208 253.66 215.618 253.225 215.978C253.661 216.338 254.052 216.747 254.393 217.197C255.769 219.161 256.469 221.517 256.389 223.911L256.389 224H253.556L253.556 223.922C253.635 222.141 253.138 220.381 252.138 218.903C251.837 218.475 251.446 218.118 250.991 217.858C250.537 217.598 250.031 217.44 249.509 217.397C249.448 217.399 249.387 217.4 249.326 217.4H249.3V217.387H247.401V223.774L244.567 223.774Z" fill="#1D1D1D"/>
</g>
<defs>
<clipPath id="clip0_314_61">
<rect width="303" height="224" fill="white"/>
</clipPath>
</defs>
</svg>
