<svg width="238" height="50" viewBox="0 0 238 50" fill="none" xmlns="http://www.w3.org/2000/svg">
<path fill-rule="evenodd" clip-rule="evenodd" d="M25.1792 0C30.1592 0 35.0273 1.46622 39.1681 4.21326C43.3088 6.96029 46.536 10.8648 48.4418 15.4329C50.3475 20.0011 50.8462 25.0277 49.8746 29.8773C48.9031 34.7268 46.505 39.1814 42.9836 42.6777C39.4622 46.174 34.9757 48.555 30.0914 49.5196C25.2072 50.4843 20.1445 49.9892 15.5436 48.097C10.9427 46.2048 7.01019 43.0005 4.24346 38.8893C1.47674 34.778 0 29.9445 0 25C0 18.3696 2.6528 12.0107 7.37482 7.32233C12.0968 2.63392 18.5013 0 25.1792 0ZM30.8257 31.1692C30.9994 31.1602 31.1731 31.1865 31.3363 31.2463C31.4995 31.3061 31.6488 31.3983 31.7749 31.5173C31.9011 31.6362 32.0016 31.7794 32.0702 31.9381C32.1389 32.0968 32.1743 32.2677 32.1743 32.4405C32.1743 32.6132 32.1389 32.7841 32.0702 32.9428C32.0016 33.1016 31.9011 33.2447 31.7749 33.3637C31.6488 33.4826 31.4995 33.5748 31.3363 33.6346C31.1731 33.6945 30.9994 33.7207 30.8257 33.7117H19.532C19.2039 33.6948 18.8949 33.5535 18.6687 33.3169C18.4425 33.0804 18.3164 32.7667 18.3164 32.4405C18.3164 32.1143 18.4425 31.8006 18.6687 31.564C18.8949 31.3274 19.2039 31.1861 19.532 31.1692H30.8257ZM31.7303 40.4727C31.4905 40.2346 31.1652 40.1008 30.8261 40.1008H19.5324C19.1933 40.1008 18.8681 40.2346 18.6283 40.4727C18.3885 40.7108 18.2538 41.0337 18.2538 41.3704C18.2538 41.7071 18.3885 42.03 18.6283 42.2681C18.8681 42.5062 19.1933 42.6399 19.5324 42.6399H30.8261C31.1652 42.6399 31.4905 42.5062 31.7303 42.2681C31.9701 42.03 32.1048 41.7071 32.1048 41.3704C32.1048 41.0337 31.9701 40.7108 31.7303 40.4727ZM30.8257 35.6336C30.9994 35.6246 31.1731 35.6508 31.3363 35.7107C31.4995 35.7705 31.6488 35.8627 31.7749 35.9816C31.9011 36.1006 32.0016 36.2437 32.0702 36.4025C32.1389 36.5612 32.1743 36.7321 32.1743 36.9048C32.1743 37.0776 32.1389 37.2485 32.0702 37.4072C32.0016 37.5659 31.9011 37.7091 31.7749 37.828C31.6488 37.947 31.4995 38.0392 31.3363 38.099C31.1731 38.1588 30.9994 38.1851 30.8257 38.1761H19.532C19.2039 38.1592 18.8949 38.0178 18.6687 37.7813C18.4425 37.5447 18.3164 37.231 18.3164 36.9048C18.3164 36.5786 18.4425 36.2649 18.6687 36.0284C18.8949 35.7918 19.2039 35.6505 19.532 35.6336H30.8257ZM42.4201 33.7011C42.5441 33.5892 42.6447 33.4541 42.7162 33.3036H42.7024C44.0581 30.4671 44.6953 27.3446 44.5586 24.2078C44.4219 21.071 43.5155 18.0148 41.9181 15.3051C40.3207 12.5954 38.0808 10.3142 35.3931 8.65987C32.7054 7.00557 29.6513 6.02826 26.4965 5.81295C23.3417 5.59764 20.1817 6.15085 17.2913 7.42446C14.4009 8.69807 11.8676 10.6535 9.91182 13.1207C7.95603 15.5879 6.63693 18.4922 6.06925 21.5809C5.50157 24.6697 5.7025 27.8494 6.65455 30.8434C6.7754 31.4416 7.02179 32.0078 7.37768 32.5051C7.73358 33.0024 8.19098 33.4197 8.72012 33.7299C9.24926 34.04 9.83825 34.236 10.4488 34.3051C11.0592 34.3742 11.6776 34.3148 12.2634 34.1308C12.8493 33.9469 13.3895 33.6425 13.849 33.2374C14.3085 32.8323 14.6769 32.3357 14.9302 31.7799C15.1835 31.2241 15.3161 30.6215 15.3192 30.0115C15.3224 29.4014 15.1961 28.7975 14.9486 28.2391C14.1938 25.8468 14.3163 23.2665 15.2944 20.9553C16.2725 18.6442 18.043 16.7514 20.2922 15.6124C22.5414 14.4734 25.1241 14.1617 27.5827 14.7325C30.0412 15.3034 32.2169 16.7199 33.7241 18.7312C33.9215 18.9958 34.0465 19.3067 34.087 19.6336C34.1267 19.9643 34.0766 20.2996 33.9418 20.6046C33.812 20.9092 33.6026 21.1737 33.3353 21.371C33.068 21.5683 32.7524 21.691 32.4213 21.7266C32.0896 21.7677 31.7529 21.7191 31.4467 21.5859C31.1462 21.4479 30.8876 21.2337 30.6968 20.9649C29.8362 19.7999 28.626 18.9355 27.2399 18.4957C25.8539 18.0558 24.3631 18.0632 22.9815 18.5166C21.5999 18.9701 20.3984 19.8463 19.5495 21.0197C18.7005 22.1931 18.2476 23.6033 18.2558 25.0481C18.2558 25.3839 18.3901 25.7059 18.6293 25.9434C18.8684 26.1808 19.1928 26.3142 19.531 26.3142C19.8692 26.3142 20.1936 26.1808 20.4327 25.9434C20.6719 25.7059 20.8062 25.3839 20.8062 25.0481C20.8084 24.1497 21.0923 23.2742 21.6183 22.5433C22.0188 21.9959 22.5433 21.5497 23.1494 21.2406C23.7555 20.9315 24.4263 20.7682 25.1077 20.7638C25.7891 20.7595 26.462 20.9142 27.0721 21.2156C27.6821 21.5169 28.2123 21.9564 28.6199 22.4987C29.0867 23.1211 29.7102 23.6107 30.4279 23.9184C31.1455 24.2261 31.9319 24.3411 32.7084 24.2517C33.4849 24.1624 34.2241 23.8719 34.8518 23.4095C35.4795 22.947 35.9737 22.3288 36.2849 21.6168C36.6022 20.9038 36.7215 20.1196 36.6305 19.3453C36.5368 18.573 36.2414 17.8385 35.7734 17.2146C33.9021 14.7155 31.1982 12.957 28.1432 12.2522C25.0881 11.5475 21.8803 11.9422 19.091 13.366C16.3017 14.7899 14.1118 17.1505 12.9115 20.0275C11.7112 22.9045 11.5782 26.1111 12.5364 29.0763C12.5549 29.1352 12.578 29.1926 12.6055 29.2479C12.7584 29.5602 12.8177 29.9095 12.7764 30.2542C12.735 30.599 12.5948 30.9247 12.3723 31.1926C12.1498 31.4605 11.8545 31.6592 11.5215 31.7652C11.1885 31.8712 10.8319 31.88 10.494 31.7904C10.1565 31.6995 9.85201 31.515 9.6162 31.2586C9.3817 31.0023 9.22687 30.6842 9.1704 30.3425C9.16082 30.2818 9.14578 30.2221 9.12548 30.164C8.28533 27.5647 8.09827 24.8008 8.58061 22.1133C9.06295 19.4257 10.2001 16.8961 11.8928 14.7449C13.5855 12.5937 15.7825 10.8863 18.2922 9.77139C20.802 8.65653 23.5482 8.16808 26.2917 8.34863C29.0351 8.52918 31.6924 9.37325 34.032 10.8073C36.3716 12.2413 38.3224 14.2217 39.7143 16.5759C41.1063 18.9301 41.8972 21.5866 42.018 24.3138C42.1389 27.0411 41.586 29.7563 40.4077 32.2228C40.3362 32.3733 40.2953 32.5363 40.2873 32.7025C40.2792 32.8687 40.3043 33.0348 40.3609 33.1914C40.4175 33.348 40.5047 33.492 40.6174 33.6152C40.7301 33.7384 40.8661 33.8383 41.0177 33.9092C41.1692 33.9802 41.3334 34.0208 41.5008 34.0288C41.6682 34.0368 41.8355 34.0119 41.9933 33.9557C42.151 33.8995 42.296 33.8129 42.4201 33.7011Z" fill="white"/>
<path fill-rule="evenodd" clip-rule="evenodd" d="M238 26.4938L237.986 7.24798C237.987 6.98875 237.935 6.73199 237.834 6.4931C237.739 6.25972 237.597 6.0483 237.416 5.87205C237.242 5.69353 237.035 5.54918 236.807 5.44658C236.566 5.35201 236.31 5.30312 236.051 5.30246H227.328C225.871 5.28702 224.425 5.55272 223.071 6.08479C221.808 6.5822 220.658 7.32666 219.691 8.27392C218.723 9.22923 217.964 10.3713 217.458 11.6297C216.911 12.9864 216.637 14.4367 216.653 15.8981V26.4938H220.524V21.3126H234.129V26.4938H238ZM220.524 15.905C220.499 14.9698 220.653 14.0385 220.976 13.16C221.244 12.4676 221.635 11.8284 222.131 11.2728C222.57 10.795 223.089 10.3957 223.665 10.0925C224.168 9.82568 224.699 9.61288 225.248 9.45769C225.682 9.33388 226.126 9.24778 226.575 9.20035C226.955 9.16261 227.204 9.14545 227.328 9.14545H234.129V17.4525H220.524V15.905Z" fill="white"/>
<path fill-rule="evenodd" clip-rule="evenodd" d="M165.296 7.24798C165.297 6.98875 165.245 6.73199 165.144 6.4931C165.049 6.25972 164.907 6.0483 164.726 5.87205C164.547 5.69251 164.334 5.54918 164.1 5.45001C163.859 5.35544 163.602 5.30656 163.343 5.3059H154.621C153.165 5.29072 151.72 5.55642 150.367 6.08822C149.099 6.58269 147.947 7.3294 146.982 8.28239C146.016 9.23538 145.257 10.3745 144.751 11.6297C144.206 12.9871 143.934 14.4371 143.949 15.8981V26.4938H147.82V21.3126H161.425V26.4938H165.296V7.24798ZM147.82 15.905C147.795 14.9698 147.949 14.0385 148.272 13.16C148.541 12.4676 148.932 11.8284 149.427 11.2728C149.866 10.7942 150.385 10.3949 150.961 10.0925C151.464 9.82508 151.995 9.61226 152.544 9.45769C152.978 9.33388 153.422 9.24778 153.871 9.20035C154.251 9.16261 154.5 9.14545 154.621 9.14545H161.425V17.4525H147.82V15.905Z" fill="white"/>
<path d="M139.861 26.4938L139.871 6.93573C139.878 6.50823 139.737 6.09138 139.47 5.75539C139.211 5.41845 138.846 5.17695 138.434 5.06914C138.016 4.95582 137.573 4.98236 137.172 5.14463C136.776 5.29612 136.443 5.57682 136.229 5.94067L127.43 21.1445L118.614 5.94067C118.511 5.75787 118.375 5.59513 118.214 5.4603C118.056 5.32715 117.878 5.22156 117.685 5.14806C117.494 5.0736 117.292 5.0296 117.087 5.01767C116.877 5.00233 116.666 5.0197 116.461 5.06914C116.046 5.17696 115.677 5.4187 115.415 5.75648C115.152 6.09425 115.01 6.509 115.01 6.93573V26.4938H118.88V13.8737L125.796 25.859C125.955 26.149 126.195 26.3873 126.487 26.5453C126.777 26.7017 127.103 26.7831 127.434 26.782C127.773 26.7818 128.107 26.7006 128.408 26.5453C128.702 26.3894 128.942 26.1506 129.099 25.859L135.963 13.8737V26.4938H139.861Z" fill="white"/>
<path fill-rule="evenodd" clip-rule="evenodd" d="M110.528 26.4938L110.545 7.24111C110.546 6.98189 110.494 6.72513 110.393 6.48624C110.298 6.25286 110.156 6.04143 109.975 5.86519C109.796 5.68893 109.585 5.54804 109.353 5.45001C109.112 5.35544 108.855 5.30656 108.596 5.3059H99.8734C98.411 5.28713 96.9589 5.5517 95.5985 6.08479C94.3355 6.5822 93.1862 7.32666 92.2187 8.27392C91.2514 9.22923 90.4916 10.3713 89.9863 11.6297C89.439 12.9864 89.1654 14.4367 89.181 15.8981V26.4938H93.0516V21.3126H106.657V26.4938H110.528ZM93.0516 17.4525L93.0688 15.905C93.0443 14.9698 93.1979 14.0385 93.5216 13.16C93.7898 12.4676 94.1807 11.8284 94.6758 11.2728C95.1154 10.795 95.6344 10.3957 96.2102 10.0925C96.7136 9.82568 97.2442 9.61288 97.793 9.45769C98.227 9.33388 98.671 9.24778 99.12 9.20035C99.5002 9.16261 99.749 9.14545 99.8734 9.14545H106.657V17.4525H93.0516Z" fill="white"/>
<path d="M85.936 16.5192C86.1722 15.7592 86.2887 14.9675 86.2816 14.1722L86.285 12.4257C86.2808 11.9173 86.2264 11.4105 86.1226 10.9125C86.0088 10.3612 85.8314 9.82463 85.5939 9.31358C85.3412 8.7785 85.0306 8.27228 84.6677 7.80384C84.2896 7.31507 83.8359 6.88888 83.3234 6.54114C82.7609 6.15382 82.1421 5.85413 81.4883 5.65245C80.728 5.41654 79.935 5.30075 79.1384 5.30933H70.3847C69.7873 5.31934 69.1947 5.41646 68.6257 5.59755C67.9854 5.79351 67.3877 6.10655 66.8632 6.52055C66.2985 6.97464 65.8378 7.54316 65.512 8.18813C65.1282 8.96913 64.942 9.83124 64.9694 10.6998V26.4835H68.8227V10.6998C68.8088 10.4913 68.8372 10.2822 68.906 10.0848C68.9749 9.88739 69.0829 9.70566 69.2236 9.55034C69.3828 9.40825 69.5692 9.29947 69.7716 9.23049C69.9741 9.16152 70.1885 9.13376 70.402 9.14888H79.1245C79.5815 9.14008 80.0355 9.22415 80.4585 9.39593C80.8331 9.54663 81.1712 9.7747 81.4503 10.065C81.73 10.3646 81.9504 10.7138 82.1 11.0944C82.2628 11.5225 82.3674 11.9702 82.411 12.4257V14.1585C82.4199 14.6101 82.3389 15.0591 82.1726 15.4795C82.027 15.8578 81.8047 16.2023 81.5194 16.4917C81.2187 16.7734 80.8669 16.9958 80.4827 17.1471C80.0525 17.3151 79.5993 17.4181 79.1384 17.4525H70.3709V21.3126H79.1384C80.211 21.2938 81.2689 21.0604 82.2486 20.6264C82.7919 20.3793 83.3025 20.067 83.7692 19.6965C84.2625 19.3113 84.6957 18.8557 85.0548 18.3446C85.441 17.7846 85.7382 17.1689 85.936 16.5192Z" fill="white"/>
<path d="M71.5383 43.4611C71.3008 43.5337 71.0542 43.573 70.8057 43.5777H64.9688V41.9719H70.7953C70.8839 41.983 70.9738 41.9739 71.0583 41.9452C71.1428 41.9166 71.2196 41.8692 71.2829 41.8067C71.3462 41.7442 71.3944 41.6682 71.4236 41.5844C71.4529 41.5007 71.4626 41.4114 71.4519 41.3234V36.3207H64.9688V34.7148H72.2571C72.3683 34.7158 72.4783 34.7367 72.582 34.7766C72.678 34.8175 72.765 34.877 72.8377 34.9516C72.913 35.0243 72.9718 35.112 73.0105 35.2089C73.0506 35.3107 73.0717 35.4188 73.0727 35.528V41.3337C73.0839 41.698 73.0057 42.0596 72.8446 42.3871C72.7047 42.6518 72.5118 42.8853 72.2778 43.0733C72.0588 43.2487 71.8077 43.3804 71.5383 43.4611Z" fill="white"/>
<path d="M65.6945 39.9543L65.6806 38.3382H70.8057V39.9543H65.6945Z" fill="white"/>
<path d="M118.908 43.4611C119.146 43.5334 119.393 43.5727 119.641 43.5777H125.478V41.9719H119.652C119.563 41.983 119.473 41.9739 119.388 41.9452C119.304 41.9166 119.227 41.8692 119.164 41.8067C119.101 41.7442 119.052 41.6682 119.023 41.5844C118.994 41.5007 118.984 41.4114 118.995 41.3234V36.3207H125.478V34.7148H118.193C118.081 34.7155 117.97 34.7364 117.865 34.7766C117.769 34.8184 117.682 34.8777 117.609 34.9516C117.536 35.0261 117.477 35.1133 117.436 35.2089C117.396 35.3107 117.375 35.4188 117.374 35.528V41.3337C117.363 41.698 117.441 42.0596 117.602 42.3871C117.742 42.6518 117.935 42.8853 118.169 43.0733C118.388 43.2487 118.639 43.3804 118.908 43.4611Z" fill="white"/>
<path d="M152.094 38.4242C152.098 38.7564 152.051 39.0871 151.956 39.4056C151.873 39.6781 151.749 39.9362 151.586 40.1707C151.437 40.3838 151.256 40.5735 151.051 40.7335C150.666 41.0322 150.216 41.2377 149.737 41.3339C149.528 41.3775 149.315 41.4005 149.102 41.4025H145.442V39.7967H149.102C149.295 39.7828 149.485 39.74 149.665 39.6698C149.824 39.605 149.971 39.512 150.097 39.3953C150.219 39.2774 150.315 39.1346 150.377 38.9767C150.446 38.8006 150.48 38.6131 150.477 38.4242V37.6934C150.457 37.5033 150.413 37.3166 150.346 37.1375C150.284 36.9772 150.191 36.8303 150.073 36.7052C149.957 36.5841 149.817 36.4883 149.661 36.4238C149.483 36.3539 149.293 36.319 149.102 36.3209H145.452C145.363 36.3098 145.273 36.3191 145.188 36.3479C145.103 36.3767 145.026 36.4243 144.962 36.4871C144.898 36.5499 144.85 36.6263 144.821 36.7105C144.791 36.7946 144.781 36.8844 144.792 36.9728V43.5779H143.175V36.9728C143.164 36.6086 143.243 36.2472 143.403 35.9194C143.541 35.6534 143.734 35.4195 143.97 35.2332C144.188 35.0591 144.438 34.9275 144.706 34.8454C144.944 34.7704 145.192 34.7299 145.442 34.7254H149.102C149.434 34.7212 149.765 34.7686 150.083 34.866C150.356 34.9504 150.615 35.0753 150.85 35.2366C151.067 35.3841 151.26 35.5648 151.42 35.7719C151.571 35.968 151.699 36.1797 151.804 36.4032C151.906 36.6221 151.98 36.8526 152.025 37.0895C152.069 37.2972 152.092 37.5086 152.094 37.7208V38.4242Z" fill="white"/>
<path fill-rule="evenodd" clip-rule="evenodd" d="M178.026 34.9998C177.55 34.8092 177.04 34.7136 176.526 34.7184H175.072C174.559 34.7146 174.051 34.8102 173.575 34.9998C173.132 35.1754 172.73 35.4392 172.394 35.775C172.057 36.1108 171.794 36.5114 171.619 36.9522C171.429 37.421 171.334 37.9223 171.339 38.4276V41.9618H169.791V43.5676H181.893V41.9618H180.262V38.4276C180.267 37.9223 180.172 37.421 179.982 36.9522C179.808 36.5114 179.544 36.1108 179.208 35.775C178.871 35.4392 178.469 35.1754 178.026 34.9998ZM178.493 37.5698C178.596 37.844 178.648 38.1348 178.645 38.4276V41.9618H172.953V38.4276C172.949 38.1344 173.002 37.8433 173.109 37.5698C173.204 37.3221 173.35 37.0967 173.537 36.9076C173.728 36.7191 173.956 36.5729 174.208 36.4787C174.484 36.3758 174.777 36.3246 175.072 36.3277H176.526C176.824 36.324 177.119 36.3752 177.397 36.4787C177.647 36.5742 177.873 36.7207 178.062 36.9086C178.251 37.0966 178.397 37.3219 178.493 37.5698Z" fill="white"/>
<path d="M229.08 42.8915C229.081 43.0022 229.103 43.1118 229.146 43.214C229.188 43.3092 229.246 43.3963 229.319 43.4714C229.393 43.5439 229.481 43.6011 229.578 43.6395C229.678 43.681 229.787 43.702 229.896 43.7012C229.998 43.7014 230.1 43.6828 230.196 43.6463C230.3 43.6075 230.394 43.5452 230.469 43.4645L236.379 37.3363V43.5777H237.996V35.4011C237.998 35.2417 237.95 35.0857 237.858 34.955C237.772 34.8265 237.652 34.7233 237.512 34.6565C237.363 34.5941 237.198 34.5774 237.04 34.6086C236.881 34.6397 236.735 34.7174 236.621 34.8315L230.708 40.9563V34.7148H229.09L229.08 42.8915Z" fill="white"/>
<path d="M202.676 40.2059C202.935 40.0583 203.223 39.9689 203.521 39.9441H204.63V43.5778L206.255 43.5881V39.9544H207.457C207.756 39.9787 208.045 40.0679 208.305 40.2155C208.564 40.3631 208.788 40.5657 208.961 40.8088C209.529 41.6505 209.813 42.6507 209.769 43.6635V43.7081H211.38V43.6601C211.427 42.2985 211.028 40.9586 210.243 39.8411C210.048 39.5875 209.824 39.3572 209.576 39.1549C209.822 38.9508 210.046 38.7207 210.243 38.4686C211.033 37.347 211.434 36.0006 211.387 34.6325V34.5811H209.769V34.6257C209.81 35.637 209.524 36.6347 208.954 37.4736C208.782 37.7172 208.558 37.9201 208.298 38.0678C208.038 38.2155 207.749 38.3043 207.45 38.328H206.248V34.6943H204.63V38.3417H203.521C203.223 38.3176 202.934 38.2285 202.675 38.0808C202.416 37.9331 202.193 37.7305 202.021 37.4873C201.449 36.6469 201.164 35.646 201.209 34.6325V34.5879H199.592V34.6394C199.602 36.2624 200.041 37.5559 200.732 38.4584C200.928 38.7112 201.152 38.9414 201.399 39.1446C201.15 39.346 200.926 39.5764 200.732 39.8308C200.041 40.7298 199.592 42.0268 199.592 43.6498V43.6979H201.209V43.6532C201.165 42.6398 201.45 41.6391 202.021 40.7985C202.193 40.5558 202.416 40.3535 202.676 40.2059Z" fill="white"/>
<path d="M214.953 9.14545H206.434V26.4938H202.564V9.14545H194.017V5.3059H214.953V9.14545Z" fill="white"/>
<path d="M173.687 13.9663H187.275V5.3059H191.149V26.4938H187.275V17.8333H173.687V26.4938H169.816V5.3059H173.687V13.9663Z" fill="white"/>
<path d="M92.3751 38.3382H98.06V34.7148H99.6773V43.5777H98.06V39.9543H92.3751V43.5777H90.7578V34.7148H92.3751V38.3382Z" fill="white"/>
<path d="M119.641 39.9543H124.756V38.3382H119.641V39.9543Z" fill="white"/>
</svg>
